<svg width="40" height="40" viewBox="0 0 40 40" fill="none" xmlns="http://www.w3.org/2000/svg">
<path d="M7.96639 4.13436C3.12098 7.79713 0 13.5416 0 20C0 24.1229 1.27185 27.9548 3.45224 31.1399C0.60574 18.8235 5.27563 8.00438 7.96639 4.13436Z" fill="url(#paint0_linear_28_1006)"/>
<path d="M19.3274 0C17.0104 0.122871 14.796 0.623467 12.7472 1.44002C11.6488 3.19959 10.4003 5.5404 9.24994 8.22912C10.5209 7.5429 13.8391 6.11042 16.9443 5.87031C17.8213 3.5107 18.6632 1.47698 19.3274 0Z" fill="url(#paint1_linear_28_1006)"/>
<path d="M8.98704 36.5893C11.9667 38.5683 15.5077 39.7974 19.3274 40C16.8454 39.7037 11.8813 36.8556 11.8813 27.8344C11.8813 21.8986 14.0304 14.1131 16.2075 7.90964C14.9308 7.90494 11.617 8.29185 8.57551 9.87715C5.34213 18.1516 3.38294 29.0243 8.98704 36.5893Z" fill="url(#paint2_linear_28_1006)"/>
<path d="M30.3387 27.9232C30.3387 21.8175 34.5144 11.9049 36.6022 7.71179C38.102 9.59991 39.2642 11.758 40 14.099C39.4918 14.7019 38.0357 17.1901 36.2775 22.3196C34.0797 28.7314 35.5293 29.4641 37.2127 29.9679C32.3027 36.2881 30.3387 32.67 30.3387 27.9232Z" fill="url(#paint3_linear_28_1006)"/>
<path d="M27.5953 38.7734C21.1883 40.9577 18.2275 37.1573 18.2275 27.9229C18.2275 20.6156 20.358 13.3439 22.5251 7.77133C25.6725 7.59013 28.9668 8.78837 30.2205 9.41014C28.7785 12.8389 27.0974 17.7883 25.6711 24.2825C22.4885 38.7734 31.3051 38.3321 36.9147 31.8844C34.5765 34.9861 31.3464 37.4035 27.5953 38.7734Z" fill="url(#paint4_linear_28_1006)"/>
<path d="M32.9357 4.13412C30.8074 2.5253 28.3465 1.31809 25.6711 0.628418C25.0291 1.94114 24.2209 3.65539 23.3755 5.6687C24.7346 5.87661 28.1027 6.69381 30.7024 8.29936C31.6297 6.22933 32.424 4.84338 32.9357 4.13412Z" fill="url(#paint5_linear_28_1006)"/>
<defs>
<linearGradient id="paint0_linear_28_1006" x1="20" y1="0" x2="19.3177" y2="40.0005" gradientUnits="userSpaceOnUse">
<stop stop-color="#02679A"/>
<stop offset="0.699386" stop-color="#13ACF4"/>
<stop offset="1" stop-color="#15B5FF"/>
</linearGradient>
<linearGradient id="paint1_linear_28_1006" x1="20" y1="0" x2="19.3177" y2="40.0005" gradientUnits="userSpaceOnUse">
<stop stop-color="#02679A"/>
<stop offset="0.699386" stop-color="#13ACF4"/>
<stop offset="1" stop-color="#15B5FF"/>
</linearGradient>
<linearGradient id="paint2_linear_28_1006" x1="20" y1="0" x2="19.3177" y2="40.0005" gradientUnits="userSpaceOnUse">
<stop stop-color="#02679A"/>
<stop offset="0.699386" stop-color="#13ACF4"/>
<stop offset="1" stop-color="#15B5FF"/>
</linearGradient>
<linearGradient id="paint3_linear_28_1006" x1="20" y1="0" x2="19.3177" y2="40.0005" gradientUnits="userSpaceOnUse">
<stop stop-color="#02679A"/>
<stop offset="0.699386" stop-color="#13ACF4"/>
<stop offset="1" stop-color="#15B5FF"/>
</linearGradient>
<linearGradient id="paint4_linear_28_1006" x1="27.5711" y1="0.628418" x2="26.2021" y2="39.3381" gradientUnits="userSpaceOnUse">
<stop stop-color="#359A03"/>
<stop offset="0.699386" stop-color="#77BB00"/>
<stop offset="1" stop-color="#9ECF09"/>
</linearGradient>
<linearGradient id="paint5_linear_28_1006" x1="27.5711" y1="0.628418" x2="26.2021" y2="39.3381" gradientUnits="userSpaceOnUse">
<stop stop-color="#359A03"/>
<stop offset="0.699386" stop-color="#77BB00"/>
<stop offset="1" stop-color="#9ECF09"/>
</linearGradient>
</defs>
</svg>
